<?xml version="1.0" encoding="UTF-8"?>
<svg id="Layer_1" data-name="Layer 1" xmlns="http://www.w3.org/2000/svg" xmlns:xlink="http://www.w3.org/1999/xlink" viewBox="0 0 981 980">
  <defs>
    <style>
      .cls-1 {
        filter: url(#drop-shadow-7);
      }

      .cls-2 {
        fill: url(#linear-gradient);
      }

      .cls-2, .cls-3, .cls-4, .cls-5, .cls-6, .cls-7, .cls-8, .cls-9, .cls-10, .cls-11, .cls-12, .cls-13, .cls-14, .cls-15, .cls-16, .cls-17 {
        stroke-width: 0px;
      }

      .cls-3 {
        fill: none;
      }

      .cls-18 {
        filter: url(#drop-shadow-1);
      }

      .cls-4 {
        fill: #fd8102;
      }

      .cls-5 {
        fill: #ff5c01;
      }

      .cls-6 {
        filter: url(#drop-shadow-5);
      }

      .cls-6, .cls-12, .cls-13 {
        fill: #05622b;
      }

      .cls-7 {
        fill: #f94d03;
      }

      .cls-8 {
        filter: url(#drop-shadow-6);
      }

      .cls-8, .cls-10, .cls-15 {
        fill: #f66303;
      }

      .cls-9 {
        fill: url(#linear-gradient-2);
      }

      .cls-10 {
        filter: url(#drop-shadow-2);
      }

      .cls-11 {
        fill: url(#linear-gradient-3);
      }

      .cls-19 {
        clip-path: url(#clippath);
      }

      .cls-12 {
        filter: url(#drop-shadow-4);
      }

      .cls-14 {
        fill: #d8dad9;
        filter: url(#drop-shadow-3);
      }

      .cls-16 {
        fill: #5f1a03;
      }

      .cls-17 {
        fill: url(#linear-gradient-4);
      }
    </style>
    <filter id="drop-shadow-1" filterUnits="userSpaceOnUse">
      <feOffset dx="20" dy="20"/>
      <feGaussianBlur result="blur" stdDeviation="20"/>
      <feFlood flood-color="#5b5b5b" flood-opacity=".75"/>
      <feComposite in2="blur" operator="in"/>
      <feComposite in="SourceGraphic"/>
    </filter>
    <filter id="drop-shadow-2" filterUnits="userSpaceOnUse">
      <feOffset dx="20" dy="20"/>
      <feGaussianBlur result="blur-2" stdDeviation="20"/>
      <feFlood flood-color="#5b5b5b" flood-opacity=".75"/>
      <feComposite in2="blur-2" operator="in"/>
      <feComposite in="SourceGraphic"/>
    </filter>
    <filter id="drop-shadow-3" filterUnits="userSpaceOnUse">
      <feOffset dx="20" dy="20"/>
      <feGaussianBlur result="blur-3" stdDeviation="20"/>
      <feFlood flood-color="#5b5b5b" flood-opacity=".75"/>
      <feComposite in2="blur-3" operator="in"/>
      <feComposite in="SourceGraphic"/>
    </filter>
    <filter id="drop-shadow-4" filterUnits="userSpaceOnUse">
      <feOffset dx="20" dy="20"/>
      <feGaussianBlur result="blur-4" stdDeviation="20"/>
      <feFlood flood-color="#5b5b5b" flood-opacity=".75"/>
      <feComposite in2="blur-4" operator="in"/>
      <feComposite in="SourceGraphic"/>
    </filter>
    <filter id="drop-shadow-5" filterUnits="userSpaceOnUse">
      <feOffset dx="20" dy="20"/>
      <feGaussianBlur result="blur-5" stdDeviation="20"/>
      <feFlood flood-color="#5b5b5b" flood-opacity=".75"/>
      <feComposite in2="blur-5" operator="in"/>
      <feComposite in="SourceGraphic"/>
    </filter>
    <filter id="drop-shadow-6" filterUnits="userSpaceOnUse">
      <feOffset dx="20" dy="20"/>
      <feGaussianBlur result="blur-6" stdDeviation="20"/>
      <feFlood flood-color="#5b5b5b" flood-opacity=".75"/>
      <feComposite in2="blur-6" operator="in"/>
      <feComposite in="SourceGraphic"/>
    </filter>
    <filter id="drop-shadow-7" filterUnits="userSpaceOnUse">
      <feOffset dx="20" dy="20"/>
      <feGaussianBlur result="blur-7" stdDeviation="20"/>
      <feFlood flood-color="#5b5b5b" flood-opacity=".75"/>
      <feComposite in2="blur-7" operator="in"/>
      <feComposite in="SourceGraphic"/>
    </filter>
    <clipPath id="clippath">
      <path class="cls-3" d="M224.09,717.18s58.09,32.73,135.82,22.09,140.73-49.09,198.82-85.91,115.36-49.91,115.36-49.91V206.64l-230.73-77.73-237.27,145.64,18,442.64Z"/>
    </clipPath>
    <linearGradient id="linear-gradient" x1="250.18" y1="637.11" x2="685.81" y2="637.11" gradientUnits="userSpaceOnUse">
      <stop offset="0" stop-color="#dd4709"/>
      <stop offset=".49" stop-color="#ff7802"/>
      <stop offset=".99" stop-color="#fd6908"/>
    </linearGradient>
    <linearGradient id="linear-gradient-2" x1="412.84" y1="531.39" x2="525.59" y2="531.39" gradientUnits="userSpaceOnUse">
      <stop offset="0" stop-color="#fa9952"/>
      <stop offset=".35" stop-color="#f5914b"/>
      <stop offset=".86" stop-color="#e77d39"/>
      <stop offset="1" stop-color="#e37733"/>
    </linearGradient>
    <linearGradient id="linear-gradient-3" x1="334.84" y1="411.73" x2="582.77" y2="411.73" gradientUnits="userSpaceOnUse">
      <stop offset="0" stop-color="#e37733"/>
      <stop offset="0" stop-color="#e37733"/>
      <stop offset=".32" stop-color="#f08a44"/>
      <stop offset=".64" stop-color="#f7954e"/>
      <stop offset=".99" stop-color="#fa9952"/>
    </linearGradient>
    <linearGradient id="linear-gradient-4" x1="392.27" y1="561.48" x2="544.63" y2="561.48" xlink:href="#linear-gradient"/>
  </defs>
  <g class="cls-18">
    <path class="cls-13" d="M783.04,726.71c-5.39-.74-15.12-2.53-20.67-6.33-1.39-11.04-5.04-21.38-10.48-30.54,2.08-6.4,8.77-13.76,12.62-17.63,1.52-1.53,1.53-3.99.02-5.53l-3.11-3.18-11.12-11.35-3.11-3.18c-1.51-1.54-3.98-1.58-5.54-.09-4.08,3.91-12,10.79-18.6,12.46-7.48-4.31-15.71-7.45-24.47-9.14-4.03-5.55-5.25-16.5-5.62-22.34-.13-2.16-1.97-3.8-4.13-3.69l-4.44.23-15.87.8-4.44.23c-2.15.11-3.82,1.93-3.73,4.08.24,6.24.1,18.34-4.05,23.89-7.27,2.61-14.04,6.25-20.16,10.74h-.01c-6.82,2.09-18.55-5.69-24.09-9.79-1.74-1.29-4.18-.94-5.48.78l-2.69,3.54-9.62,12.65-2.69,3.54c-1.31,1.72-.99,4.16.71,5.49,5.71,4.44,17.1,14.34,15.79,21.59-2.93,8.29-4.52,17.21-4.52,26.51,0,.47,0,.94.02,1.41-2.78,6.47-15.24,11.37-21.57,13.5-2.05.69-3.16,2.89-2.5,4.94l5.49,17.03.75,2.33,1.36,4.23c.67,2.06,2.85,3.19,4.91,2.56,6.18-1.91,18.54-5.05,24.8-1.96,4.42,6.66,9.82,12.62,15.99,17.67,2.17,6.61-1.81,18.19-4.14,24.04-.8,2,.16,4.27,2.15,5.1l4.11,1.7,14.68,6.07,4.11,1.7c2,.83,4.28-.1,5.13-2.09,2.34-5.45,7.26-15.56,13.01-19.32,3.73.54,7.55.82,11.43.82,7.04,0,13.87-.91,20.37-2.63,5.65,3.62,11.12,11.78,13.92,16.42,1.12,1.85,3.51,2.46,5.37,1.36l3.83-2.25,13.7-8.06,3.83-2.25c1.86-1.1,2.49-3.48,1.42-5.35-2.56-4.48-6.75-12.63-7.49-19.19,8.19-7.81,14.73-17.32,19.02-27.98,6.3-2.39,16.31-1.74,21.77-1.13,2.15.24,4.08-1.29,4.35-3.43l.55-4.41,1.96-15.77.55-4.41c.26-2.15-1.24-4.1-3.38-4.39ZM641.13,730.45c0-23.27,18.87-42.14,42.14-42.14s42.13,18.87,42.13,42.14-18.86,42.14-42.13,42.14-42.14-18.87-42.14-42.14Z"/>
  </g>
  <path class="cls-10" d="M879.69,338.14l-45.99,45.09c-39.13-164.31-186.87-286.5-363.15-286.5-163.94,0-303.19,105.67-353.37,252.61-3.08-.87-8.32-1.56-15.54.21-12.28,3-12,16.09-12,16.09,0,0-1.09,141,2.18,148.09,1.88,4.08,5.57,6.35,9.04,8.53,2.56,1.61,5,3.17,6.5,5.38,3.11,4.54-2.15,11.17-3.51,12.75-.19.22-.3.34-.3.34l-45.41,50.64c-11.31-38.48-17.37-79.19-17.37-121.32,0-237.36,192.42-429.78,429.78-429.78,191.34,0,353.47,125.04,409.14,297.87Z"/>
  <path class="cls-14" d="M249.25,781l-.66.87c-46.23-3.49-80.95-10.69-80.95-10.69l-5.14-1.46c-48.1-49.43-84.4-110.39-104.36-178.35l45.41-50.64s.11-.12.3-.34c6.1,31.98,16.28,62.51,29.98,91.03,1.38,3.53,3.02,7.16,4.97,10.9,3.59,6.9,7.3,13.2,11.08,18.96,29.09,44.43,62.28,57.05,79.12,70.63,11.96,9.65,16.89,26.58,18.9,37.81,1.18,6.63,1.35,11.28,1.35,11.28Z"/>
  <path class="cls-12" d="M900.32,470.05c0,98.26-32.98,188.82-88.47,261.21-.29-15.57-6.43-26.25-17.69-28.81-13.5-3.06-16.57-.61-4.3-19.02,6.09-9.12,4.93-17.49,2.22-23.61,32.91-55.61,51.78-120.48,51.78-189.77,0-3.95-.06-7.89-.19-11.82,19.21-22.66,37.76-65.08,45.77-84.69,7.12,31.02,10.88,63.33,10.88,96.51Z"/>
  <path class="cls-6" d="M686.58,841.65c-63.47,36.99-137.28,58.17-216.03,58.17-120.81,0-229.98-49.85-308.05-130.1l5.14,1.46s44.23,9.17,99.32,11.83c41.58,2.01,89.35.31,128.95-11.83,92.04-28.23,166.91-84.68,166.91-84.68,0,0,6.15,12.81,15.33,22.23,3.63,3.72,2.07,9.93-2.87,11.54-8.39,2.74-18.02,7.42-21.19,14.91-6,14.18,13.09,56.73,19.91,58.91s19.64-2.45,26.18,2.73c6.44,5.09,1.01,18.35.57,23.2-.01.09-.02.17-.02.25-.28,4.64,29.45,30.28,52.91,31.09,23.45.82,25.36-13.36,29.45-13.36,1.99,0,3.14,1.61,3.49,3.65Z"/>
  <path class="cls-8" d="M295.5,363.32H114.68c-4.72,0-8.59,3.86-8.59,8.59v129.68c0,4.73,3.87,8.59,8.59,8.59h75.76l3.81,5.26c3.01,4.14,2.88,9.79-.31,13.79l-3.24,4.07h-24.17c-2.45,0-4.67,1-6.28,2.61-1.62,1.61-2.62,3.83-2.62,6.28,0,4.9,4.01,8.9,8.9,8.9h77.12c2.45,0,4.67-1,6.28-2.61,1.61-1.62,2.61-3.84,2.61-6.29,0-4.89-4-8.89-8.89-8.89h-12.96l-3.24-4.07c-3.2-4-3.32-9.65-.32-13.79l3.81-5.26h64.56c4.73,0,8.59-3.86,8.59-8.59v-129.68c0-4.73-3.86-8.59-8.59-8.59ZM284.87,486.45c0,4.73-3.87,8.6-8.59,8.6h-142.37c-4.72,0-8.59-3.87-8.59-8.6v-95.72c0-4.73,3.87-8.59,8.59-8.59h142.37c4.72,0,8.59,3.86,8.59,8.59v95.72Z"/>
  <g class="cls-1">
    <g>
      <path class="cls-15" d="M800.86,542.25c-11.51-39.81-23.02-79.62-34.76-119.37-2.71-9.18-5.09-18.3-4.21-27.96,0-2.55-.02-5.09-.03-7.64.02-2.11.03-4.22.08-6.33.01-.7-.09-1.72,1.12-1.18,5.61,2.49,11.43,4.51,16.81,7.51.05.02.04.15.06.23,4.7,1.2,8.94,3.55,13.41,5.34.86.34,1.49.95,1.66,1.92.19,1.58.27,3.15-.05,4.73,2.53-.02,5.06-.04,7.59-.06-.03-1.46-.19-2.94-.06-4.39.43-4.59-1.7-7.17-5.88-8.9-10.96-4.52-21.79-9.35-32.7-13.97-1.5-.64-2.09-1.43-2.02-3.08.12-3,0-6.01-.01-9.02,0-2.51.01-5.03.02-7.55.01-2.19.03-4.38.03-6.57,0-.84.14-1.58,1.22-1.09,5.71,2.64,11.73,4.59,17.2,7.77,4.7,1.41,9.05,3.68,13.54,5.59.72.31,1.04.97,1.16,1.72.02,1.49.03,2.97.05,4.45,2.45-.02,4.9-.04,7.35-.06,0-.98.01-1.95.01-2.93,0-7.09-.48-7.81-6.94-10.59-10.82-4.64-21.63-9.31-32.46-13.92-1.55-.67-2.72-1.57-3.67-3-6.09-9.22-12.31-18.36-18.34-27.62-1.07-1.63-2.86-2.58-3.62-4.4h-6.35c.7.23.34.64.05.83-1.85,1.21-2.82,3.11-3.95,4.88-5.53,8.7-11.08,17.38-16.56,26.11-.95,1.51-2.11,2.53-3.76,3.23-11.42,4.86-22.77,9.86-34.22,14.66-3.62,1.53-5.38,3.94-5.14,7.87.1,1.62.02,3.25.02,4.87,2.45.02,4.9.04,7.35.06.01-1.48.03-2.96.05-4.45.12-.88.58-1.53,1.4-1.85,4.44-1.79,8.7-4.05,13.3-5.46,3.19-2.13,6.88-3.17,10.32-4.79,1.99-.93,4.07-1.66,6.03-2.62,1.72-.84,2.14-.24,2.08,1.44-.06,1.95,0,3.9.02,5.85,0,2.52.01,5.04.02,7.55-.01,2.84-.17,5.7,0,8.53.11,2.01-.58,2.98-2.47,3.77-11.23,4.72-22.38,9.62-33.58,14.41-3.03,1.3-4.58,3.47-4.54,6.79.02,1.95-.05,3.9-.08,5.85,2.53.02,5.06.04,7.59.06-.32-1.57-.24-3.15-.05-4.73.18-.97.81-1.57,1.67-1.92,4.46-1.79,8.71-4.13,13.41-5.34.1-.71.75-.81,1.24-1.02,4.98-2.16,9.98-4.27,14.95-6.46,1.34-.59,1.9-.44,1.85,1.17-.07,2.02.02,4.05.04,6.08,0,2.54-.02,5.09-.03,7.64,0,.81,0,1.63-.04,2.44-.29,4.52.58,9.07-.74,13.57-12.76,43.68-25.48,87.36-38.13,131.08-.16.55-.34.99-.55,1.35.03.37,0,.75-.12,1.1h28.17c.37-.29.86-.48,1.47-.48.14,0,.26.01.39.03.33-.21.72-.26,1.06-.36,11.21-3.32,22.42-6.63,33.62-9.97,1.04-.31,2.03-.5,3.09-.19,11.59,3.45,23.19,6.9,34.78,10.35.29.08.56.24.83.36-.02.09-.05.18-.07.26h29.56c-.03-.28-.02-.56.03-.83-.24-.35-.44-.8-.6-1.38ZM755.96,413.84c1.83,6.58,3.77,13.11,5.68,19.66.12.4.23.78-.18,1.38-11.93-7.34-23.87-14.69-35.8-22.04.33-.93,1.01-.59,1.48-.59,8.78-.02,17.56,0,26.34-.04,1.27,0,2.08.18,2.48,1.62ZM715.36,379.35c0-1.24.22-1.98,1.71-1.97,10.08.08,20.15.11,30.24.16h3.35c3.79.01,3.84.06,3.86,3.93.03,7.24.02,14.48.12,21.72.02,1.7-.87,1.76-2.14,1.76-9.44-.03-18.88-.02-28.31-.02-1.84,0-3.69-.12-5.52.01-2.37.18-3.49-.73-3.25-3.14-.01-7.48-.01-14.96-.06-22.44ZM719.84,332.97c4.57-7.1,9.16-14.19,13.75-21.28.3-.47.68-.88,1.18-1.53,5.5,8.22,10.89,16.3,16.26,24.33-.47.93-1.21.61-1.78.62-9.42.02-18.85.02-28.27,0-.63,0-1.55.08-1.82-.27-.53-.69.32-1.31.69-1.88ZM715.32,367.32c.18-6.99.12-13.99.15-20.99,0-3.9.04-3.92,3.91-3.92,1.3,0,2.59-.04,3.81.5.54-.73,1.34-.46,2.02-.46,9.02-.02,18.04.03,27.06-.05,1.77-.02,2.41.43,2.38,2.29-.12,7.15-.07,14.3-.09,21.45q-.12,4.07-4.2,4.07c-1.11,0-2.23-.01-3.35-.02-9.6-.03-19.2-.13-28.79-.06-2.17.01-2.96-.5-2.9-2.82ZM707.28,437.15c2.03-6.94,4.11-13.88,6.07-20.84.42-1.48.82-1.87,2.26-.98,12.78,7.93,25.6,15.81,38.4,23.7.13.08.21.23.44.48-.83.55-1.57.34-2.28.34-14.24.01-28.48.01-42.71,0-2.95,0-2.95-.01-2.17-2.71ZM697.95,469.31c1.9-6.7,3.91-13.38,5.78-20.09.42-1.49,1.07-2.08,2.67-2.08,13.87.05,27.74.02,41.61.05.73,0,1.67-.35,2.11.69,4.57-.99,9.2-.35,13.81-.47.9-.02,1.56.38,1.78,1.32,1.4,2.42,1.79,5.18,2.58,7.8,1.77,5.91,3.47,11.84,5.32,18.2h-64.51c-3.23,0-6.46.02-9.69,0-.85,0-1.95.33-2.44-.6-.54-1.02.33-1.79.88-2.58-.86-.76-.12-1.55.08-2.23ZM687.13,507.24c1.24-6.27,3.48-12.27,5.12-18.44.5-1.87,1.15-3.7,1.73-5.55.28-.78.87-1.17,1.67-1.15,5.96.15,11.94-.55,17.88.44.61-.83,1.49-.47,2.24-.47,12.81-.03,25.62-.03,38.43-.02.76,0,1.64-.34,2.25.48,5.94-.98,11.93-.29,17.89-.43.8-.02,1.39.36,1.67,1.15,2.42,7.96,4.99,15.87,6.85,23.99,1.09,1.89.67,2.41-1.59,2.31-4.73-.21-9.48-.06-14.21-.06-.81.06-1.61.19-2.42.19-19.75.01-39.51.01-59.26,0-.81,0-1.61-.12-2.42-.19-4.74,0-9.49-.14-14.21.06-2.25.1-2.68-.41-1.6-2.31ZM707.82,533.46c-9.65,2.87-19.3,5.75-28.97,8.59-.57.17-1.25.8-1.79.22-.49-.53,0-1.23.17-1.83,1.99-6.86,4-13.73,5.97-20.6.33-1.14.62-1.96,2.12-1.51,11.97,3.59,23.95,7.15,36.64,10.92-5.15,1.54-9.65,2.88-14.14,4.21ZM732.87,524.77c-7.29-2.23-14.61-4.38-21.91-6.55-.61-.18-1.2-.41-1.8-.61,0-.16,0-.31,0-.47h52.11c-.48.81-1.18.81-1.76.98-7.46,2.23-14.94,4.42-22.39,6.67-1.46.44-2.78.42-4.25-.02ZM748.96,529.52c0-.17-.02-.33-.03-.49,3.97-1.19,7.92-2.38,11.89-3.56,7.78-2.31,15.57-4.59,23.35-6.93,1.22-.37,2.1-.64,2.57,1.02,2.05,7.27,4.2,14.51,6.3,21.77.08.29.03.62.06,1.3-14.9-4.42-29.52-8.77-44.13-13.1Z"/>
      <path class="cls-15" d="M761.87,360.07c0-2.52.01-5.03.02-7.55,6.15.04,12.3.08,18.45.12,4.7,1.41,9.05,3.68,13.54,5.59.72.31,1.04.97,1.16,1.72-11.06.04-22.12.08-33.18.12Z"/>
      <path class="cls-15" d="M779.94,387.51c4.7,1.2,8.95,3.55,13.41,5.34.86.34,1.49.95,1.66,1.92-10.07,0-20.14,0-30.21.02-.97,0-1.94.08-2.91.13,0-2.55-.02-5.09-.03-7.64,6.02.08,12.05.15,18.07.23Z"/>
      <path class="cls-15" d="M794.96,399.49c2.53-.02,5.06-.04,7.59-.06.89.02,1.78,0,2.67.07,2.1.18,3.28,1.43,3.39,3.44.11,1.92-.98,3.46-2.87,3.64-4.59.44-9.22.47-13.8-.01-2-.21-3.02-1.83-2.79-3.91.22-1.95,1.42-3.02,3.38-3.17.8-.06,1.62,0,2.43,0Z"/>
      <path class="cls-15" d="M795.1,364.4c2.45-.02,4.9-.04,7.35-.07,1.05.08,2.12.06,3.13.27,2,.43,3.17,1.75,3.02,3.8-.15,2.01-1.37,3.31-3.48,3.35-4.13.07-8.25.08-12.38,0-2.21-.04-3.56-1.43-3.63-3.43-.07-2.01,1.18-3.47,3.32-3.79.88-.13,1.77-.1,2.66-.14Z"/>
      <path class="cls-15" d="M708.1,352.52c0,2.52.02,5.03.02,7.55-11.06-.04-22.12-.08-33.18-.12.12-.88.58-1.53,1.4-1.86,4.45-1.79,8.7-4.05,13.3-5.46,6.15-.04,12.3-.08,18.45-.12Z"/>
      <path class="cls-15" d="M674.98,394.76c.17-.97.8-1.57,1.66-1.92,4.47-1.79,8.71-4.13,13.41-5.34,6.02-.08,12.05-.15,18.07-.23,0,2.55-.02,5.09-.03,7.64-9.82-.04-19.64-.09-29.47-.13-1.22,0-2.44-.01-3.65-.02Z"/>
      <path class="cls-15" d="M667.45,399.43c2.53.02,5.06.04,7.59.06.81,0,1.62-.06,2.43,0,1.95.15,3.16,1.22,3.37,3.17.23,2.08-.79,3.7-2.79,3.9-4.58.48-9.21.45-13.8,0-1.9-.18-2.98-1.72-2.87-3.65.12-2.01,1.3-3.27,3.4-3.44.89-.07,1.78-.05,2.67-.07Z"/>
      <path class="cls-15" d="M667.54,364.34l7.35.07c.89.04,1.79.01,2.66.14,2.14.32,3.39,1.79,3.32,3.79-.08,2-1.43,3.39-3.63,3.43-4.04.08-8.09.04-12.14.02-2.21-.02-3.47-1.26-3.73-3.38-.24-1.95,1.32-3.61,3.52-3.89.88-.11,1.77-.12,2.66-.18Z"/>
      <path class="cls-15" d="M782.85,507.24c1.08,1.89.67,2.41-1.59,2.31-4.73-.21-9.48-.07-14.21-.07-10.21-3.69-20.43-7.37-30.64-11.07-.97-.35-1.85-.36-2.83,0-10.2,3.71-20.42,7.39-30.63,11.07-4.74,0-9.49-.14-14.22.07-2.25.1-2.68-.41-1.6-2.31,12.13-4.32,24.27-8.64,37.09-13.21-10.58-3.77-20.41-7.28-30.24-10.78.28-.78.86-1.17,1.67-1.15,5.96.15,11.94-.55,17.88.44,6.42,2.27,12.85,4.49,19.24,6.83,1.55.57,2.9.56,4.45,0,6.39-2.33,12.82-4.56,19.24-6.83,5.94-.98,11.93-.29,17.89-.43.8-.02,1.39.37,1.67,1.15-9.86,3.51-19.73,7.02-30.26,10.78,12.85,4.58,24.98,8.9,37.11,13.22Z"/>
      <path class="cls-15" d="M697.88,471.54c17.42-7.89,34.84-15.77,52.26-23.66,4.57-.99,9.2-.35,13.81-.47.9-.02,1.56.38,1.79,1.32-18.19,8.26-36.38,16.52-54.56,24.8-.71.32-1.58.42-2.04,1.2-3.23,0-6.46.02-9.69-.01-.85,0-1.94.33-2.44-.6-.55-1.02.33-1.8.88-2.58Z"/>
      <path class="cls-15" d="M723.19,342.91c9.79,7.3,19.58,14.6,29.37,21.89.65.48,1.34.9,2,1.35q-.12,4.07-4.21,4.07c-1.12,0-2.23-.02-3.35-.02-.25-.31-.45-.69-.76-.92-10.25-7.66-20.51-15.3-30.77-22.94,0-3.9.04-3.92,3.91-3.92,1.29,0,2.59-.04,3.81.5Z"/>
      <path class="cls-15" d="M754.52,381.47c-9.98,7.62-19.96,15.24-29.94,22.87-.18.13-.26.38-.39.58-1.84,0-3.69-.12-5.52.01-2.37.18-3.48-.73-3.24-3.14,10.89-7.74,21.45-15.91,31.89-24.25,1.12,0,2.24,0,3.36,0,3.79.01,3.84.06,3.86,3.92Z"/>
    </g>
    <path class="cls-15" d="M706.7,541.62l-36.22,10.94c-2.08.63-4.02-1.31-3.39-3.39l5.48-18.22,1.2,10.53,1.47,1.73h4.13l27.34-1.6Z"/>
    <path class="cls-15" d="M766.7,542.55l32.78,10.69c1.9.62,3.72-1.12,3.19-3.05l-5.03-18.31-.8,8.53-.67,2.67-5.2.13-11.47-1.6-12.8.93Z"/>
  </g>
  <g class="cls-19">
    <g>
      <path class="cls-2" d="M685.81,746.72H250.18c.36-49.39,3.35-110.12,14.7-139.08,22.81-58.17,50.72-55.65,50.72-55.65v.65l78.48-25.15,3.36,1.64,5.69,2.78,23.53,62.35,15.17-10.25c6.54,4.82,13.98,8.55,22.09,9.7,1.73.26,3.5.39,5.29.39,2.33,0,4.62-.23,6.87-.64,7.63-1.4,14.71-5.01,20.99-9.53l15.28,10.34,24.03-63.71,3.19-1.59,2.95-1.48,77.88,24.95v-.46s27.91-2.52,50.71,55.65c11.36,28.96,14.34,89.69,14.7,139.08Z"/>
      <g>
        <path class="cls-9" d="M525.59,468.69v83.41s-11.26,19.39-28.52,31.81c-6.28,4.53-13.36,8.13-20.99,9.53-2.25.41-4.54.64-6.87.64-1.79,0-3.56-.13-5.29-.39-8.11-1.15-15.55-4.88-22.09-9.7-17.81-13.13-28.99-34.41-28.99-34.41v-80.91h112.75Z"/>
        <path class="cls-11" d="M575.07,373.07c-2.7-.62-4.9.11-6.7,1.53.01-1.67.06-3.28.06-4.98,0-40.29-12.34-65.84-28.51-82.06h-157.04c-19.12,17.99-30.65,46.13-31.87,88.74-2.07-2.46-4.8-4.06-8.44-3.22-10.81,2.46-9.83,30.75,0,44.57,6.8,9.57,11.55,10.47,13.83,10.1,17.69,67.69,73.71,108.17,109.02,108.17s81.05-33.13,97.21-108.15c2.58-.21,6.79-2.15,12.42-10.13,9.77-13.82,10.75-42.11,0-44.57Z"/>
        <path class="cls-16" d="M377.78,287.55c-24.35,24.3-29.97,61.01-26.8,99.5,0,0,28.45,7.8,34.24-48.53,0,0,79.6,18.9,133.13-26.09,0,0,28.22,27.82,31.21,54.24,2.22,19.57,11.81,22.54,18.88,20.38,0,0,6.08-60.23-22.39-99.5,0,0-22.25-35.4-86.91-35.4-44.18,0-65.97,20.05-81.36,35.41Z"/>
      </g>
      <path class="cls-17" d="M544.63,527.9l-1.61,5.27-3.34,1.51-25.19,60.72-16.02-9.85c-6.58,4.32-14.01,7.75-22.01,9.09-2.36.39-4.76.61-7.2.61-1.88,0-3.73-.12-5.55-.37-8.5-1.1-16.3-4.65-23.16-9.24l-15.9,9.77-24.67-59.42-5.97-2.65-1.73-5.74,5.35,2.73,12.53,6.4,53.55,27.35,2.56,1.3,3.25,1.67.08.04,2.32,1.18,4.99-2.77,23-12.76,28.45-15.79,13.48-7.47,2.79-1.55Z"/>
      <g>
        <path class="cls-4" d="M545.34,526.45l-.82,2.17-2.25,5.97-26.15,69.32-16.63-11.25-22.48-15.18-7.52-5.09-.04-.02v-10.85s.01,0,.02-.01h.04c1.59-.33,34.1-7.23,61.01-30.86,1.5-1.31,2.97-2.67,4.43-4.09l10.38-.11Z"/>
        <path class="cls-4" d="M469.55,561.52v10.85l-.04.02-6.07,4.11-24.04,16.26-16.51,11.15-25.6-67.84-2.44-6.46-1.19-3.15,10.37.11c1.25,1.23,2.54,2.41,3.82,3.56,27.03,24.05,60.03,31.06,61.63,31.39h.04s.02.01.02.01Z"/>
      </g>
      <g>
        <g>
          <path class="cls-4" d="M582.15,332.26c.17-2.78.32-5.59.32-8.4,0-66.14-54.86-119.74-122.52-119.74s-122.5,53.61-122.5,119.74c0,2.82.14,5.62.34,8.4h244.36Z"/>
          <path class="cls-5" d="M507.07,315.12c0,6.39-4.88,11.58-10.87,11.58h-72.46c-6,0-10.86-5.19-10.86-11.58v-103.17c0-3.2,11.76-22.66,47.08-22.66s47.11,19.47,47.11,22.66v103.17h0Z"/>
          <path class="cls-7" d="M470.5,306.48c0,4.51-4.72,8.17-10.54,8.17h0c-5.81,0-10.52-3.65-10.52-8.17v-121.49c0-4.51,4.71-8.14,10.52-8.14h0c5.82,0,10.54,3.63,10.54,8.14v121.49Z"/>
        </g>
        <path class="cls-5" d="M595.82,352.44c-.25,1.91-2.9,3.22-5.94,2.94-86.38-8.23-173.45-8.23-259.83,0-3.05.28-5.71-1.03-5.94-2.94-.63-5.16-1.27-10.32-1.91-15.46-.22-1.91,2.1-3.72,5.19-4.02,88.15-8.38,177-8.38,265.15,0,3.1.3,5.41,2.11,5.18,4.02-.64,5.13-1.26,10.31-1.89,15.46Z"/>
      </g>
    </g>
  </g>
</svg>